# xmcd
#
# Track frame offsets:
#	187
#	15157
#	26497
#	37362
#	46985
#	56065
#	63730
#	72965
#	83387
#	90987
#	104820
#	117990
#
# Disc length: 1714 seconds
#
# Revision: 2
# Processed by: cddbd v1.5.2PL0 Copyright (c) Steve Scherf et al.
# Submitted via: audiograbber 1.83.01
#
DISCID=9c06b00c
DTITLE=Patsy Cline - Commemorative Collection [CD 2) - Live At The Opry
DYEAR=1988
DGENRE=Country
TTITLE0=A Church, A Courtroom, And Then Goodbye
TTITLE1=I've Loved And Lost Again
TTITLE2=Walkin' After Midnight
TTITLE3=Lovesick Blues
TTITLE4=How Can I Face Tomorrow
TTITLE5=Loose Talk
TTITLE6=Crazy Dreams
TTITLE7=There He Goes
TTITLE8=Lovin' In Vain
TTITLE9=I Fall To Pieces
TTITLE10=She's Got You
TTITLE11=Crazy
EXTD=
EXTT0=
EXTT1=
EXTT2=
EXTT3=
EXTT4=
EXTT5=
EXTT6=
EXTT7=
EXTT8=
EXTT9=
EXTT10=
EXTT11=
PLAYORDER=
